<?xml version="1.0" standalone="no"?>
<!DOCTYPE svg PUBLIC "-//W3C//DTD SVG 1.1//EN" "http://www.w3.org/Graphics/SVG/1.1/DTD/svg11.dtd">
<svg xmlns="http://www.w3.org/2000/svg">
<defs>
<font id="IBMPlexMono" horiz-adv-x="600"><font-face font-family="IBM Plex Mono SemiBold" units-per-em="1000" panose-1="2 11 7 9 5 2 3 0 2 3" ascent="1025" descent="-275" alphabetic="0"></font-face>
<glyph unicode=" " glyph-name="space"></glyph>
<glyph unicode="!" glyph-name="exclam" d="M279 240L230 495V698H370V495L321 240H279ZM300 -11Q250 -11 230 10T209 61V89Q209 119 229 140T300 161Q350 161 370 140T391 89V61Q391 31 371 10T300 -11Z"></glyph>
<glyph unicode="&quot;" glyph-name="quotedbl" d="M394 428V740H510V428H394ZM347 428V740H463V428H347Z"></glyph>
<glyph unicode="#" glyph-name="numbersign" d="M126 201H11V297H144L161 401H49V497H179L214 698H318L195 0H91L126 201ZM405 698H509L474 497H589V401H456L439 297H551V201H421L386 0H282L405 698Z"></glyph>
<glyph unicode="$" glyph-name="dollar" d="M261 -11Q183 -5 128 24T37 101L116 182Q182 108 268 98V305L245 309Q196 318 161 336T103 380T70 438T59 507Q59 592 111 644T261 707V811H359V708Q424 700 470 675T549 610L470 529Q424 584 352 596V406L377 402Q475
384 519 333T563 206Q563 121 511 65T359 -7V-113H261V-11ZM182 511Q182 474 202 454T268 423V599Q182 587 182 511ZM441 198Q441 238 420 258T352 289V99Q397 107 419 132T441 198Z"></glyph>
<glyph unicode="%" glyph-name="percent" d="M166 344Q94 344 53 392T12 527Q12 614 53 662T166 710Q238 710 279 662T320 527Q320 440 279 392T166 344ZM166 421Q198 421 212 443T227 504V550Q227 588 213 610T166 633Q134 633 120 611T105 550V504Q105 466 119
444T166 421ZM492 698H593L439 398H339L492 698ZM161 300H261L108 0H7L161 300ZM434 -12Q362 -12 321 36T280 171Q280 258 321 306T434 354Q506 354 547 306T588 171Q588 84 547 36T434 -12ZM434 65Q466 65 480 87T495 148V194Q495 232 481 254T434 277Q402 277
388 255T373 194V148Q373 110 387 88T434 65Z"></glyph>
<glyph unicode="&amp;" glyph-name="ampersand" d="M210 -12Q163 -12 128 4T67 47T30 110T17 187Q17 247 46 297T139 382Q107 424 91 459T74 536Q74 574 88 606T128 661T189 697T265 710Q301 710 331 700T384 674T424 636T448 591L357 543Q346 575 322 593T265
612Q230 612 209 591T188 538V532Q188 517 192 504T205 475T230 439T268 391L334 307L390 229H396Q399 247 401 268T404 311T406 355T407 396H574V299H503Q497 262 489 228T463 154L591 0H452L370 99H363Q354 48 314 18T210 -12ZM242 89Q271 89 295 100T334 137L192
315Q160 289 149 260T138 197V192Q138 142 166 116T242 89Z"></glyph>
<glyph unicode="&apos;" glyph-name="quotesingle" d="M242 428V740H358V428H242Z"></glyph>
<glyph unicode="(" glyph-name="parenleft" d="M183 311Q183 384 199 451T244 577T311 681T391 760H519Q474 728 433 685T361 591T312 481T293 359V263Q293 200 311 142T361 32T433 -63T519 -138H391Q349 -107 311 -60T245 45T200 170T183 311Z"></glyph>
<glyph unicode=")" glyph-name="parenright" d="M417 311Q417 238 401 171T356 45T289 -60T209 -138H81Q126 -106 167 -63T239 31T288 141T307 263V359Q307 422 289 480T239 590T167 685T81 760H209Q251 728 289 682T355 577T400 452T417 311Z"></glyph>
<glyph unicode="*" glyph-name="asterisk" d="M186 44L96 105L213 261L34 322L67 422L244 360V549H356V360L533 422L566 322L387 261L504 105L414 44L300 200L186 44Z"></glyph>
<glyph unicode="+" glyph-name="plus" d="M244 62V254H62V357H244V549H356V357H538V254H356V62H244Z"></glyph>
<glyph unicode="," glyph-name="comma" d="M236 163H408L277 -148H180L236 163Z"></glyph>
<glyph unicode="-" glyph-name="hyphen" d="M145 242V367H455V242H145Z"></glyph>
<glyph unicode="." glyph-name="period" d="M300 -11Q248 -11 226 11T204 65V95Q204 127 226 149T300 171Q352 171 374 149T396 95V65Q396 33 374 11T300 -11Z"></glyph>
<glyph unicode="/" glyph-name="slash" d="M78 -138L407 760H522L193 -138H78Z"></glyph>
<glyph unicode="0" glyph-name="zero" d="M300 -12Q232 -12 182 12T100 83T52 196T36 349Q36 434 51 501T99 615T182 685T300 710Q436 710 500 615T564 349Q564 178 500 83T300 -12ZM300 93Q372 93 401 144T431 287V411Q431 502 402 553T300 605Q228 605 199 554T169
411V287Q169 196 198 145T300 93ZM300 290Q265 290 252 304T238 338V360Q238 380 251 394T300 408Q335 408 348 394T362 360V338Q362 318 349 304T300 290Z"></glyph>
<glyph unicode="1" glyph-name="one" d="M91 0V107H283V603H274L122 423L40 492L213 698H414V107H572V0H91Z"></glyph>
<glyph unicode="2" glyph-name="two" d="M550 0H58V122L282 313Q338 361 365 400T392 485V495Q392 545 364 571T286 597Q231 597 202 567T160 493L46 536Q57 570 77 601T128 657T201 695T297 710Q353 710 396 695T470 652T515 586T531 503Q531 460 518 424T480
356T424 293T353 233L201 110H550V0Z"></glyph>
<glyph unicode="3" glyph-name="three" d="M272 416Q335 416 364 441T394 504V511Q394 554 366 578T287 602Q239 602 203 580T141 518L56 594Q74 618 96 639T147 676T211 701T291 710Q344 710 388 698T464 661T513 604T531 528Q531 495 520 468T491 421T448 388T395
369V364Q426 358 453 345T500 310T532 260T544 193Q544 147 525 109T472 44T389 3T280 -12Q230 -12 191 -2T122 27T70 68T31 117L128 192Q153 150 187 123T282 96Q342 96 374 123T407 200V208Q407 256 372 281T273 307H203V416H272Z"></glyph>
<glyph unicode="4" glyph-name="four" d="M351 0V135H28V247L313 698H476V237H570V135H476V0H351ZM135 237H351V570H343L135 237Z"></glyph>
<glyph unicode="5" glyph-name="five" d="M518 584H198L181 350H189Q201 372 215 390T247 422T289 442T344 449Q388 449 427 434T495 391T540 322T557 229Q557 177 540 133T489 57T407 6T295 -12Q246 -12 208 -2T140 27T89 68T51 117L146 192Q158 172 172 155T205
124T245 104T297 96Q357 96 388 128T420 218V226Q420 281 388 312T298 343Q254 343 227 327T182 291L75 306L101 698H518V584Z"></glyph>
<glyph unicode="6" glyph-name="six" d="M303 -12Q242 -12 195 7T114 62T64 148T46 262Q46 337 69 403T128 525T210 625T300 698H478Q415 654 366 614T280 531T219 444T182 344L190 342Q200 362 214 380T247 413T292 436T352 445Q396 445 434 430T499 387T543
318T559 228Q559 175 541 131T490 55T409 6T303 -12ZM302 91Q362 91 393 122T424 212V224Q424 282 393 313T302 344Q245 344 213 313T181 224V212Q181 154 212 123T302 91Z"></glyph>
<glyph unicode="7" glyph-name="seven" d="M167 0L416 591H167V463H55V698H546V584L305 0H167Z"></glyph>
<glyph unicode="8" glyph-name="eight" d="M300 -12Q238 -12 190 3T109 46T59 110T42 191Q42 260 80 302T182 361V369Q128 388 96 428T63 529Q63 569 79 602T125 660T199 697T300 710Q357 710 401 697T475 660T521 603T537 529Q537 468 505 428T418 369V361Q481
344 519 302T558 191Q558 147 541 110T491 46T410 4T300 -12ZM300 90Q359 90 390 116T422 190V210Q422 258 391 284T300 311Q240 311 209 285T178 210V190Q178 143 209 117T300 90ZM300 408Q355 408 384 433T413 502V516Q413 559 384 583T300 608Q245 608 216 584T187
516V502Q187 458 216 433T300 408Z"></glyph>
<glyph unicode="9" glyph-name="nine" d="M554 436Q554 361 531 295T472 173T390 73T300 0H122Q185 44 234 84T320 167T381 254T418 354L410 356Q400 336 386 317T353 284T308 262T248 253Q204 253 166 268T100 311T57 380T41 470Q41 523 59 567T110 643T191 692T297
710Q358 710 405 691T486 636T536 550T554 436ZM298 354Q355 354 387 385T419 474V486Q419 544 388 575T298 607Q238 607 207 576T176 486V474Q176 416 207 385T298 354Z"></glyph>
<glyph unicode=":" glyph-name="colon" d="M300 -11Q248 -11 226 11T204 65V95Q204 127 226 149T300 171Q352 171 374 149T396 95V65Q396 33 374 11T300 -11ZM300 344Q248 344 226 366T204 420V450Q204 482 226 504T300 526Q352 526 374 504T396 450V420Q396 388
374 366T300 344Z"></glyph>
<glyph unicode=";" glyph-name="semicolon" d="M236 163H408L277 -148H180L236 163ZM300 344Q248 344 226 366T204 420V450Q204 482 226 504T300 526Q352 526 374 504T396 450V420Q396 388 374 366T300 344Z"></glyph>
<glyph unicode="&lt;" glyph-name="less" d="M85 245V365L515 601V479L201 309V301L515 131V9L85 245Z"></glyph>
<glyph unicode="=" glyph-name="equal" d="M62 364V467H538V364H62ZM62 143V246H538V143H62Z"></glyph>
<glyph unicode="&gt;" glyph-name="greater" d="M85 131L399 301V309L85 479V601L515 365V245L85 9V131Z"></glyph>
<glyph unicode="?" glyph-name="question" d="M217 228V382Q295 385 340 411T386 498V512Q386 557 359 578T290 600Q243 600 214 574T174 505L66 549Q75 580 93 609T138 660T204 696T294 710Q345 710 387 696T459 655T505 592T522 510Q522 466 507 432T467 372T408
330T339 308V228H217ZM281 -11Q231 -11 211 10T190 61V89Q190 119 210 140T281 161Q331 161 351 140T372 89V61Q372 31 352 10T281 -11Z"></glyph>
<glyph unicode="@" glyph-name="at" d="M449 -112H338Q257 -112 201 -87T111 -9T61 120T45 303Q45 418 62 496T111 621T191 689T301 710Q364 710 410 691T486 639T530 561T545 463V91H449V151H442Q431 117 408 99T346 80Q287 80 253 131T219 294Q219 405 253 456T346
508Q384 508 407 489T442 437H449V463Q449 548 412 586T306 624Q267 624 237 611T187 566T157 484T146 358V229Q146 171 155 124T187 44T247 -8T338 -26H449V-112ZM385 157Q415 157 432 174T449 222V366Q449 397 432 414T385 431Q353 431 337 408T320 326V262Q320
203 336 180T385 157Z"></glyph>
<glyph unicode="A" glyph-name="A" d="M449 0L400 177H193L145 0H13L209 698H391L588 0H449ZM301 569H293L216 284H378L301 569Z"></glyph>
<glyph unicode="B" glyph-name="B" d="M80 698H323Q422 698 475 649T529 514Q529 454 500 418T416 366V361Q479 346 515 307T552 195Q552 151 538 116T497 54T433 14T348 0H80V698ZM308 95Q363 95 390 115T418 186V219Q418 268 391 288T308 309H208V95H308ZM291
400Q344 400 369 419T395 485V518Q395 565 370 584T291 603H208V400H291Z"></glyph>
<glyph unicode="C" glyph-name="C" d="M318 -12Q181 -12 116 82T50 349Q50 521 115 615T318 710Q370 710 409 696T478 658T526 599T556 523L436 489Q429 513 420 534T398 570T364 594T316 603Q248 603 219 551T189 409V289Q189 199 218 147T316 95Q344 95 364
103T397 127T420 164T436 209L556 175Q545 134 526 100T478 41T410 2T318 -12Z"></glyph>
<glyph unicode="D" glyph-name="D" d="M73 698H290Q426 698 492 608T559 349Q559 179 493 90T290 0H73V698ZM281 105Q353 105 387 152T422 289V410Q422 499 388 546T281 593H202V105H281Z"></glyph>
<glyph unicode="E" glyph-name="E" d="M83 0V698H524V590H214V408H513V300H214V108H524V0H83Z"></glyph>
<glyph unicode="F" glyph-name="F" d="M83 0V698H539V590H214V408H507V300H214V0H83Z"></glyph>
<glyph unicode="G" glyph-name="G" d="M421 97H413Q404 76 391 56T359 21T315 -3T256 -12Q150 -12 96 81T41 344Q41 522 105 616T302 710Q354 710 393 696T461 657T508 598T538 523L418 489Q411 511 403 532T381 568T348 593T301 603Q236 603 208 551T180 409V297Q180
252 186 215T208 150T247 109T307 94Q363 94 392 127T421 213V270H294V365H538V0H421V97Z"></glyph>
<glyph unicode="H" glyph-name="H" d="M402 300H198V0H67V698H198V408H402V698H533V0H402V300Z"></glyph>
<glyph unicode="I" glyph-name="I" d="M78 0V98H235V600H78V698H522V600H365V98H522V0H78Z"></glyph>
<glyph unicode="J" glyph-name="J" d="M502 698V191Q502 144 486 107T441 43T370 3T277 -12Q178 -12 122 38T49 171L172 197Q181 153 204 125T277 96Q322 96 346 122T370 206V590H134V698H502Z"></glyph>
<glyph unicode="K" glyph-name="K" d="M277 306L204 210V0H73V698H204V384H210L291 500L438 698H586L367 404L596 0H448L277 306Z"></glyph>
<glyph unicode="L" glyph-name="L" d="M100 0V698H231V108H540V0H100Z"></glyph>
<glyph unicode="M" glyph-name="M" d="M438 323L444 525H435L300 166L165 525H156L162 323V0H48V698H204L301 441H308L406 698H552V0H438V323Z"></glyph>
<glyph unicode="N" glyph-name="N" d="M189 501H179V0H67V698H228L411 197H421V698H533V0H372L189 501Z"></glyph>
<glyph unicode="O" glyph-name="O" d="M300 -12Q232 -12 182 12T100 83T52 196T36 349Q36 434 51 501T99 615T182 685T300 710Q436 710 500 615T564 349Q564 178 500 83T300 -12ZM300 95Q335 95 359 108T397 147T418 208T425 290V409Q425 499 398 551T300 603Q230
603 203 551T175 409V289Q175 199 202 147T300 95Z"></glyph>
<glyph unicode="P" glyph-name="P" d="M80 0V698H345Q447 698 501 640T555 482Q555 382 501 324T345 266H211V0H80ZM211 373H318Q371 373 394 394T417 463V501Q417 548 394 569T318 591H211V373Z"></glyph>
<glyph unicode="Q" glyph-name="Q" d="M516 -183H381Q307 -183 275 -146T243 -46V-7Q136 12 86 104T36 349Q36 434 51 501T99 615T182 685T300 710Q436 710 500 615T564 349Q564 196 514 104T357 -7V-88H516V-183ZM300 95Q335 95 359 108T397 147T418 208T425
290V409Q425 499 398 551T300 603Q230 603 203 551T175 409V289Q175 199 202 147T300 95Z"></glyph>
<glyph unicode="R" glyph-name="R" d="M211 0H80V698H345Q447 698 501 640T555 482Q555 405 520 353T418 286L567 0H423L290 271H211V0ZM318 373Q371 373 394 394T417 463V501Q417 548 394 569T318 591H211V373H318Z"></glyph>
<glyph unicode="S" glyph-name="S" d="M292 -12Q202 -12 139 19T35 101L114 183Q153 138 198 117T296 95Q356 95 388 122T420 200Q420 242 396 263T315 294L241 306Q144 323 103 376T62 503Q62 603 127 656T307 710Q389 710 448 684T544 613L467 531Q439 564 400
583T308 603Q194 603 194 509Q194 469 218 448T300 417L373 404Q464 387 508 337T552 209Q552 160 535 120T485 50T404 4T292 -12Z"></glyph>
<glyph unicode="T" glyph-name="T" d="M365 590V0H235V590H25V698H575V590H365Z"></glyph>
<glyph unicode="U" glyph-name="U" d="M193 698V263Q193 224 195 193T208 141T240 107T300 95Q338 95 359 107T391 140T404 193T407 263V698H538V283Q538 209 529 154T494 62T422 7T300 -12Q225 -12 179 6T106 62T71 154T62 283V698H193Z"></glyph>
<glyph unicode="V" glyph-name="V" d="M208 0L17 698H161L248 345L299 125H306L358 345L446 698H583L392 0H208Z"></glyph>
<glyph unicode="W" glyph-name="W" d="M65 0L18 698H131L153 296L162 130H171L241 537H363L433 130H442L451 296L473 698H582L535 0H366L304 395H296L234 0H65Z"></glyph>
<glyph unicode="X" glyph-name="X" d="M586 0H438L362 139L301 261H293L230 139L152 0H14L219 360L27 698H176L240 580L301 459H308L370 580L437 698H575L382 358L586 0Z"></glyph>
<glyph unicode="Y" glyph-name="Y" d="M235 0V255L8 698H154L235 530L298 387H305L369 530L451 698H592L365 255V0H235Z"></glyph>
<glyph unicode="Z" glyph-name="Z" d="M552 0H48V115L395 590H60V698H539V583L193 108H552V0Z"></glyph>
<glyph unicode="[" glyph-name="bracketleft" d="M195 -138V760H506V672H299V-50H506V-138H195Z"></glyph>
<glyph unicode="\" glyph-name="backslash" d="M407 -138L78 760H193L522 -138H407Z"></glyph>
<glyph unicode="]" glyph-name="bracketright" d="M405 760V-138H94V-50H301V672H94V760H405Z"></glyph>
<glyph unicode="^" glyph-name="asciicircum" d="M466 253L302 582H293L129 253L32 300L232 698H368L568 300L466 253Z"></glyph>
<glyph unicode="_" glyph-name="underscore" d="M60 -185V-78H540V-185H60Z"></glyph>
<glyph unicode="`" glyph-name="grave" d="M161 745L269 799L364 612L287 575L161 745Z"></glyph>
<glyph unicode="a" glyph-name="a" d="M490 0Q443 0 418 23T387 89H382Q368 41 327 15T226 -12Q148 -12 102 29T56 143Q56 299 285 299H376V333Q376 382 352 407T274 432Q225 432 195 413T144 364L71 426Q95 469 148 498T287 528Q389 528 446 481T504 339V96H565V0H490ZM269
76Q315 76 345 97T376 156V225H288Q183 225 183 159V139Q183 108 206 92T269 76Z"></glyph>
<glyph unicode="b" glyph-name="b" d="M69 740H197V425H204Q225 472 261 500T358 528Q402 528 438 512T501 462T541 377T555 258Q555 190 541 139T501 55T439 5T358 -12Q298 -12 262 16T204 91H197V0H69V740ZM304 90Q360 90 390 124T421 217V299Q421 358 391 392T304
426Q260 426 229 405T197 339V177Q197 133 228 112T304 90Z"></glyph>
<glyph unicode="c" glyph-name="c" d="M320 -12Q261 -12 214 7T135 61T85 146T67 258Q67 320 84 370T134 455T213 509T319 528Q401 528 451 494T527 404L428 350Q414 383 389 403T319 424Q262 424 232 391T201 301V215Q201 159 231 126T321 92Q367 92 394 113T439
169L535 112Q509 57 457 23T320 -12Z"></glyph>
<glyph unicode="d" glyph-name="d" d="M403 91H396Q375 44 339 16T242 -12Q198 -12 162 4T99 54T59 139T45 258Q45 394 99 461T242 528Q302 528 338 500T396 425H403V740H531V0H403V91ZM296 90Q318 90 337 95T371 111T394 138T403 177V339Q403 361 395 377T372
404T338 420T296 426Q240 426 210 392T179 299V217Q179 158 209 124T296 90Z"></glyph>
<glyph unicode="e" glyph-name="e" d="M312 -12Q250 -12 202 7T122 61T72 145T55 257Q55 320 72 370T122 455T199 509T302 528Q358 528 403 510T479 457T528 375T545 269V227H183V214Q183 158 218 124T316 89Q364 89 398 108T456 160L529 87Q501 46 448 17T312
-12ZM303 434Q249 434 216 400T183 310V303H417V312Q417 368 387 401T303 434Z"></glyph>
<glyph unicode="f" glyph-name="f" d="M75 101H233V415H65V516H233V600Q233 631 241 656T268 700T313 729T378 740H552V639H361V516H552V415H361V101H529V0H75V101Z"></glyph>
<glyph unicode="g" glyph-name="g" d="M576 -54Q576 -135 509 -173T298 -212Q228 -212 181 -204T106 -179T65 -141T53 -90Q53 -47 78 -24T148 10V18Q118 28 101 46T83 96Q83 134 108 153T176 182V187Q130 209 104 249T78 346Q78 389 93 422T137 479T206 515T295
528Q347 528 389 514V536Q389 566 408 586T463 606H556V510H434V493Q472 470 492 434T513 346Q513 303 498 269T454 212T385 177T295 164Q275 164 257 165T221 172Q207 167 194 156T181 127Q181 103 204 98T259 92H376Q430 92 468 82T530 52T565 5T576 -54ZM456
-63Q456 -40 438 -27T369 -13H191Q161 -30 161 -63Q161 -90 183 -108T260 -126H343Q456 -126 456 -63ZM295 248Q344 248 367 271T390 333V359Q390 397 367 420T295 444Q247 444 224 421T201 359V333Q201 295 224 272T295 248Z"></glyph>
<glyph unicode="h" glyph-name="h" d="M75 740H203V425H208Q225 467 260 497T359 528Q435 528 482 478T530 333V0H402V315Q402 427 305 427Q285 427 267 422T235 407T212 381T203 345V0H75V740Z"></glyph>
<glyph unicode="i" glyph-name="i" d="M332 596Q287 596 269 615T250 661V685Q250 712 268 731T332 750Q377 750 395 731T414 685V661Q414 634 396 615T332 596ZM98 101H268V415H98V516H396V101H554V0H98V101Z"></glyph>
<glyph unicode="j" glyph-name="j" d="M95 -99H308V415H91V516H436V-60Q436 -122 401 -161T292 -200H95V-99ZM373 596Q328 596 310 615T291 661V685Q291 712 309 731T373 750Q418 750 436 731T455 685V661Q455 634 437 615T373 596Z"></glyph>
<glyph unicode="k" glyph-name="k" d="M77 740H205V306H211L286 388L413 516H562L357 313L584 0H431L266 240L205 182V0H77V740Z"></glyph>
<glyph unicode="l" glyph-name="l" d="M72 101H236V639H72V740H364V101H529V0H72V101Z"></glyph>
<glyph unicode="m" glyph-name="m" d="M37 0V516H143V445H149Q161 479 183 503T247 528Q286 528 309 506T339 442H344Q357 477 382 502T455 528Q512 528 537 487T562 366V0H457V351Q457 396 445 414T407 432Q384 432 369 417T353 371V0H247V351Q247 396 235 414T198
432Q174 432 159 417T143 371V0H37Z"></glyph>
<glyph unicode="n" glyph-name="n" d="M75 0V516H203V425H208Q225 467 260 497T359 528Q435 528 482 478T530 333V0H402V315Q402 427 305 427Q285 427 267 422T235 407T212 381T203 345V0H75Z"></glyph>
<glyph unicode="o" glyph-name="o" d="M300 -12Q241 -12 195 7T116 61T66 146T48 258Q48 320 65 370T115 455T194 509T300 528Q358 528 405 509T484 455T534 370T552 258Q552 196 535 146T485 61T405 7T300 -12ZM300 86Q355 86 387 119T419 218V298Q419 363 387
396T300 430Q245 430 213 397T181 298V218Q181 153 213 120T300 86Z"></glyph>
<glyph unicode="p" glyph-name="p" d="M69 516H197V425H204Q225 472 261 500T358 528Q402 528 438 512T501 462T541 377T555 258Q555 190 541 139T501 55T439 5T358 -12Q298 -12 262 16T204 91H197V-200H69V516ZM304 90Q360 90 390 124T421 217V299Q421 358 391
392T304 426Q260 426 229 405T197 339V177Q197 133 228 112T304 90Z"></glyph>
<glyph unicode="q" glyph-name="q" d="M403 91H396Q375 44 339 16T242 -12Q198 -12 162 4T99 54T59 139T45 258Q45 394 99 461T242 528Q302 528 338 500T396 425H403V516H531V-200H403V91ZM296 90Q318 90 337 95T371 111T394 138T403 177V339Q403 361 395 377T372
404T338 420T296 426Q240 426 210 392T179 299V217Q179 158 209 124T296 90Z"></glyph>
<glyph unicode="r" glyph-name="r" d="M75 101H203V415H75V516H331V375H339Q346 402 358 427T390 472T438 504T505 516H561V396H455Q397 396 364 362T331 275V101H510V0H75V101Z"></glyph>
<glyph unicode="s" glyph-name="s" d="M298 -12Q213 -12 151 14T54 86L129 154Q161 119 202 100T299 81Q347 81 376 97T405 146Q405 174 386 184T334 199L251 212Q219 217 189 226T135 253T97 296T83 361Q83 442 143 485T310 528Q385 528 437 507T524 448L457
374Q435 398 399 416T306 435Q208 435 208 374Q208 346 228 336T280 320L362 307Q395 302 425 293T479 266T517 223T531 159Q531 79 470 34T298 -12Z"></glyph>
<glyph unicode="t" glyph-name="t" d="M335 0Q261 0 226 39T191 140V415H41V516H143Q174 516 187 528T200 573V698H319V516H529V415H319V101H529V0H335Z"></glyph>
<glyph unicode="u" glyph-name="u" d="M397 91H392Q375 49 340 19T241 -12Q165 -12 118 38T70 183V516H198V201Q198 89 295 89Q314 89 332 94T365 109T388 135T397 171V516H525V0H397V91Z"></glyph>
<glyph unicode="v" glyph-name="v" d="M223 0L38 516H172L241 297L299 107H306L364 297L433 516H562L377 0H223Z"></glyph>
<glyph unicode="w" glyph-name="w" d="M14 516H121L165 90H174L244 516H361L430 90H439L484 516H586L520 0H365L305 379H296L235 0H80L14 516Z"></glyph>
<glyph unicode="x" glyph-name="x" d="M34 0L227 262L45 516H192L254 425L302 353H309L357 425L419 516H555L373 268L566 0H418L347 104L298 177H291L242 104L171 0H34Z"></glyph>
<glyph unicode="y" glyph-name="y" d="M441 516H571L324 -92Q303 -145 268 -172T169 -200H75V-99H198L237 5L29 516H165L244 300L299 136H306L361 300L441 516Z"></glyph>
<glyph unicode="z" glyph-name="z" d="M72 0V109L372 415H82V516H518V407L218 101H528V0H72Z"></glyph>
<glyph unicode="{" glyph-name="braceleft" d="M327 -138Q267 -138 240 -110T213 -38V12Q213 38 218 57T232 92T250 119T269 142Q286 162 292 176T299 207Q299 267 183 267H96V355H183Q299 355 299 415Q299 431 293 445T269 480Q260 491 250 503T232 530T219 564T213
610V660Q213 704 240 732T327 760H504V672H317V616Q317 577 329 556T357 515Q374 494 389 470T404 414Q404 372 375 347T289 314V308Q346 301 375 276T404 208Q404 176 389 152T357 107Q341 87 329 66T317 6V-50H504V-138H327Z"></glyph>
<glyph unicode="|" glyph-name="bar" d="M245 -138V760H355V-138H245Z"></glyph>
<glyph unicode="}" glyph-name="braceright" d="M273 760Q333 760 360 732T387 660V610Q387 584 382 565T368 530T350 503T331 480Q314 460 308 446T301 415Q301 355 417 355H504V267H417Q301 267 301 207Q301 191 307 177T331 142Q340 131 350 119T368 92T381
58T387 12V-38Q387 -82 360 -110T273 -138H96V-50H283V6Q283 45 271 66T243 107Q226 128 211 152T196 208Q196 250 225 275T311 308V314Q254 321 225 346T196 414Q196 446 211 470T243 515Q259 535 271 556T283 616V672H96V760H273Z"></glyph>
<glyph unicode="~" glyph-name="asciitilde" d="M409 218Q380 218 352 227T291 253Q265 266 244 276T202 286Q176 286 161 268T133 218L41 252Q56 314 94 353T191 392Q220 392 248 383T309 357Q335 344 356 334T398 324Q424 324 439 342T467 392L559 358Q544 296
506 257T409 218Z"></glyph>
<glyph unicode="&#xa0;" glyph-name="uni00A0"></glyph>
<glyph unicode="&#xa1;" glyph-name="exclamdown" d="M230 -182V21L279 276H321L370 21V-182H230ZM300 355Q250 355 230 376T209 427V455Q209 485 229 506T300 527Q350 527 370 506T391 455V427Q391 397 371 376T300 355Z"></glyph>
<glyph unicode="&#xa2;" glyph-name="cent" d="M264 -114V-7Q170 9 119 79T67 258Q67 367 118 437T264 523V630H363V525Q426 517 465 485T527 404L433 353Q422 378 403 397T356 425V90Q387 98 408 118T444 165L535 112Q512 64 470 32T363 -9V-114H264ZM192 215Q192
170 212 138T272 93V423Q233 411 213 379T192 301V215Z"></glyph>
<glyph unicode="&#xa3;" glyph-name="sterling" d="M71 0V127Q154 162 154 251Q154 257 154 263T152 274H48V372H121Q109 401 100 432T90 502Q90 548 107 586T157 652T234 695T334 710Q412 710 465 682T556 602L468 524Q443 557 413 577T336 597Q284 597 254 569T223
484Q223 452 231 425T251 372H434V274H281Q283 266 283 257Q283 230 276 209T257 170T231 141T203 122V114H548V0H71Z"></glyph>
<glyph unicode="&#xa5;" glyph-name="yen" d="M62 100H238V231H62V331H176L7 698H144L298 331H306L460 698H593L424 331H538V231H362V100H538V0H62V100Z"></glyph>
<glyph unicode="&#xa6;" glyph-name="brokenbar" d="M245 401V760H355V401H245ZM245 -138V221H355V-138H245Z"></glyph>
<glyph unicode="&#xa7;" glyph-name="section" d="M504 3Q504 -36 488 -68T444 -122T376 -157T288 -170Q238 -170 188 -155T96 -102L162 -24Q187 -49 219 -62T289 -76Q337 -76 364 -56T392 -1Q392 29 369 46T299 76L225 97Q182 109 153 125T105 160T78 202T70
248Q70 293 97 328T180 387V400Q139 426 121 460T102 537Q102 577 117 609T161 663T230 698T318 710Q368 710 418 695T510 643L444 564Q418 589 387 602T317 616Q269 616 242 596T214 542Q214 512 237 494T307 464L381 443Q424 431 453 415T501 380T528 338T536
292Q536 247 509 212T426 153V140Q467 114 485 80T504 3ZM426 255Q426 286 406 309T332 346L260 366Q251 368 243 371T227 377Q204 357 192 335T180 285Q180 254 200 231T274 194L346 174Q355 172 363 169T379 163Q402 183 414 205T426 255Z"></glyph>
<glyph unicode="&#xa8;" glyph-name="dieresis" d="M195 599Q154 599 138 616T122 657V679Q122 703 138 720T195 737Q236 737 252 720T268 679V657Q268 633 252 616T195 599ZM405 599Q364 599 348 616T332 657V679Q332 703 348 720T405 737Q446 737 462 720T478
679V657Q478 633 462 616T405 599Z"></glyph>
<glyph unicode="&#xa9;" glyph-name="copyright" d="M300 18Q237 18 183 41T88 107T24 211T0 349Q0 425 23 486T87 591T182 657T300 680Q363 680 417 657T512 591T576 487T600 349Q600 272 577 211T513 107T418 41T300 18ZM300 73Q351 73 394 92T469 144T519 223T537
319V379Q537 430 519 475T470 553T395 606T300 625Q249 625 206 606T131 554T81 475T63 379V319Q63 268 81 223T130 145T205 92T300 73ZM308 158Q227 158 180 210T133 349Q133 392 145 427T181 488T237 526T308 540Q365 540 400 513T453 444L378 405Q367 429 351
443T309 457Q277 457 259 437T240 383V315Q240 282 258 262T310 241Q339 241 356 255T385 293L459 254Q442 215 406 187T308 158Z"></glyph>
<glyph unicode="&#xaa;" glyph-name="ordfeminine" d="M429 345Q364 345 358 406H354Q344 374 316 356T244 337Q190 337 160 365T129 443Q129 498 169 525T288 552H350V572Q350 607 334 624T282 641Q248 641 227 628T192 594L140 640Q157 669 194 689T291 710Q362
710 402 676T442 576V414H481V345H429ZM289 498Q219 498 219 454V441Q219 421 234 411T275 400Q306 400 328 414T350 456V498H289Z"></glyph>
<glyph unicode="&#xab;" glyph-name="guillemotleft" d="M523 43L321 213V329L523 499L562 415L427 271L562 127L523 43ZM507 43L305 213V329L507 499L546 415L411 271L546 127L507 43Z"></glyph>
<glyph unicode="&#xac;" glyph-name="logicalnot" d="M416 61V254H62V357H522V61H416Z"></glyph>
<glyph unicode="&#xad;" glyph-name="uni00AD" d="M145 242V367H455V242H145Z"></glyph>
<glyph unicode="&#xae;" glyph-name="registered" d="M300 346Q262 346 229 360T170 398T131 455T117 528Q117 567 131 600T170 658T228 696T300 710Q338 710 371 696T429 658T468 601T483 528Q483 489 469 456T430 398T372 360T300 346ZM300 387Q329 387 353
396T396 423T424 464T435 518V538Q435 568 425 592T396 633T354 659T300 669Q271 669 247 660T204 633T176 592T165 538V518Q165 488 175 464T204 423T246 397T300 387ZM275 436H225V621H315Q349 621 365 604T382 560Q382 520 347 504L388 436H333L299 495H275V436ZM303
532Q329 532 329 553V561Q329 582 303 582H275V532H303Z"></glyph>
<glyph unicode="&#xaf;" glyph-name="overscore" d="M151 714H449V622H151V714Z"></glyph>
<glyph unicode="&#xb0;" glyph-name="degree" d="M300 344Q261 344 228 358T170 396T131 454T117 527Q117 566 131 599T170 657T228 696T300 710Q339 710 372 696T430 658T469 600T483 527Q483 488 469 455T430 397T372 358T300 344ZM300 430Q342 430 366 457T391
527Q391 569 367 596T300 624Q258 624 234 597T209 527Q209 485 233 458T300 430Z"></glyph>
<glyph unicode="&#xb1;" glyph-name="plusminus" d="M244 174V350H62V453H244V629H356V453H538V350H356V174H244ZM62 0V104H538V0H62Z"></glyph>
<glyph unicode="&#xb2;" glyph-name="twosuperior" d="M446 329H163V408L278 497Q313 524 328 542T343 585V587Q343 610 328 619T293 628Q266 628 252 614T232 579L153 609Q167 648 203 676T302 704Q368 704 404 673T440 592Q440 568 431 548T407 510T373 477T331
448L261 402H446V329Z"></glyph>
<glyph unicode="&#xb3;" glyph-name="threesuperior" d="M284 554Q315 554 328 565T342 592V596Q342 613 329 623T292 634Q268 634 247 623T210 590L154 642Q178 671 210 687T294 704Q360 704 399 677T438 605Q438 570 416 549T361 523V519Q398 513 421 491T444
432Q444 382 402 353T291 323Q260 323 237 329T196 344T165 367T142 395L209 446Q221 423 240 408T291 393Q319 393 334 405T349 437V440Q349 463 332 472T284 482H248V554H284Z"></glyph>
<glyph unicode="&#xb4;" glyph-name="acute" d="M313 575L236 612L331 799L439 745L313 575Z"></glyph>
<glyph unicode="&#xb5;" glyph-name="mu" d="M75 -200V516H203V208Q203 89 297 89Q316 89 334 94T366 109T388 135T397 171V516H525V0H397V91H392Q385 71 375 52T349 19T314 -3T268 -12Q242 -12 222 -2T185 33H180L203 -86V-200H75Z"></glyph>
<glyph unicode="&#xb6;" glyph-name="paragraph" d="M253 246Q206 246 166 263T94 310T46 381T28 472Q28 521 45 562T94 634T165 681T253 698H538V-149H432V597H359V-149H253V246Z"></glyph>
<glyph unicode="&#xb7;" glyph-name="middot" d="M300 213Q248 213 226 235T204 289V319Q204 351 226 373T300 395Q352 395 374 373T396 319V289Q396 257 374 235T300 213Z"></glyph>
<glyph unicode="&#xb8;" glyph-name="cedilla" d="M313 -210Q265 -210 237 -196T197 -167L241 -116Q250 -128 266 -136T305 -145Q324 -145 336 -139T349 -118Q349 -106 335 -95T276 -78L253 -75L274 27H336L318 -57L322 -61Q333 -58 345 -56T368 -54Q397 -54 418
-70T439 -122Q439 -146 429 -163T401 -190T361 -205T313 -210Z"></glyph>
<glyph unicode="&#xb9;" glyph-name="onesuperior" d="M184 329V399H282V617L195 576L161 639L277 698H372V399H458V329H184Z"></glyph>
<glyph unicode="&#xba;" glyph-name="ordmasculine" d="M300 338Q218 338 172 387T125 524Q125 611 171 660T300 710Q382 710 428 661T475 524Q475 437 429 388T300 338ZM300 408Q338 408 358 431T379 495V553Q379 594 359 617T300 640Q262 640 242 617T221 553V495Q221
454 241 431T300 408Z"></glyph>
<glyph unicode="&#xbb;" glyph-name="guillemotright" d="M55 127L190 271L55 415L94 499L296 329V213L94 43L55 127ZM295 127L430 271L295 415L334 499L536 329V213L334 43L295 127Z"></glyph>
<glyph unicode="&#xbc;" glyph-name="onequarter" d="M38 426H126V631L45 590L16 644L120 698H206V426H283V363H38V426ZM500 698H594L425 398H331L500 698ZM175 300H269L100 0H6L175 300ZM467 64H312V133L446 335H543V120H588V64H543V0H467V64ZM467 120V260H462L369
120H467Z"></glyph>
<glyph unicode="&#xbd;" glyph-name="onehalf" d="M38 426H126V631L45 590L16 644L120 698H206V426H283V363H38V426ZM500 698H594L425 398H331L500 698ZM175 300H269L100 0H6L175 300ZM324 70L432 153Q464 178 476 196T488 237V240Q488 257 476 266T443 276Q419
276 405 263T382 227L315 253Q321 270 331 286T357 314T395 333T448 341Q508 341 540 312T573 241Q573 220 566 203T545 169T513 138T472 107L412 63H580V0H324V70Z"></glyph>
<glyph unicode="&#xbe;" glyph-name="threequarters" d="M147 357Q92 357 61 378T13 425L71 464Q82 444 99 431T146 418Q198 418 198 458V465Q198 485 181 495T136 506H106V564H138Q167 564 180 574T194 601V609Q194 623 182 633T147 643Q124 643 105 633T71 602L22
646Q44 673 72 688T147 704Q207 704 242 680T277 614Q277 582 257 563T207 538V534Q241 529 262 510T283 456Q283 411 246 384T147 357ZM500 698H594L425 398H331L500 698ZM175 300H269L100 0H6L175 300ZM467 64H312V133L446 335H543V120H588V64H543V0H467V64ZM467
120V260H462L369 120H467Z"></glyph>
<glyph unicode="&#xbf;" glyph-name="questiondown" d="M306 -194Q255 -194 213 -180T141 -139T95 -76T78 6Q78 50 93 84T133 144T192 186T261 208V288H383V134Q305 131 260 105T214 18V4Q214 -41 241 -62T310 -84Q357 -84 386 -58T426 11L534 -33Q525 -64 507
-93T462 -144T396 -180T306 -194ZM319 355Q269 355 249 376T228 427V455Q228 485 248 506T319 527Q369 527 389 506T410 455V427Q410 397 390 376T319 355Z"></glyph>
<glyph unicode="&#xc0;" glyph-name="Agrave" d="M449 0L400 177H193L145 0H13L209 698H391L588 0H449ZM301 569H293L216 284H378L301 569ZM161 915L269 969L364 782L287 745L161 915Z"></glyph>
<glyph unicode="&#xc1;" glyph-name="Aacute" d="M449 0L400 177H193L145 0H13L209 698H391L588 0H449ZM301 569H293L216 284H378L301 569ZM313 745L236 782L331 969L439 915L313 745Z"></glyph>
<glyph unicode="&#xc2;" glyph-name="Acircumflex" d="M449 0L400 177H193L145 0H13L209 698H391L588 0H449ZM301 569H293L216 284H378L301 569ZM358 950L484 795L418 746L298 861L178 746L116 795L242 950H358Z"></glyph>
<glyph unicode="&#xc3;" glyph-name="Atilde" d="M449 0L400 177H193L145 0H13L209 698H391L588 0H449ZM301 569H293L216 284H378L301 569ZM375 768Q351 768 333 775T297 790Q275 800 257 806T222 812Q205 812 192 806T163 787L117 846Q134 872 160 889T225 907Q249
907 267 900T303 885Q325 875 343 869T378 863Q395 863 408 869T437 888L483 829Q466 803 440 786T375 768Z"></glyph>
<glyph unicode="&#xc4;" glyph-name="Adieresis" d="M449 0L400 177H193L145 0H13L209 698H391L588 0H449ZM301 569H293L216 284H378L301 569ZM195 769Q154 769 138 786T122 827V849Q122 873 138 890T195 907Q236 907 252 890T268 849V827Q268 803 252 786T195
769ZM405 769Q364 769 348 786T332 827V849Q332 873 348 890T405 907Q446 907 462 890T478 849V827Q478 803 462 786T405 769Z"></glyph>
<glyph unicode="&#xc5;" glyph-name="Aring" d="M449 0L400 177H193L145 0H13L209 698H391L588 0H449ZM301 569H293L216 284H378L301 569ZM300 726Q271 726 246 736T202 764T173 806T162 861Q162 890 172 915T201 958T245 986T300 996Q329 996 354 986T398 958T427
916T438 861Q438 832 428 807T399 764T355 736T300 726ZM300 793Q326 793 339 807T353 845V877Q353 929 300 929Q274 929 261 915T247 877V845Q247 793 300 793Z"></glyph>
<glyph unicode="&#xc6;" glyph-name="AE" d="M289 178H170L131 0H3L176 698H568V599H410V403H558V304H410V99H568V0H289V178ZM264 607L191 276H289V607H264Z"></glyph>
<glyph unicode="&#xc7;" glyph-name="Ccedilla" d="M316 603Q248 603 219 551T189 409V289Q189 200 218 148T316 95Q344 95 364 103T397 127T420 164T436 209L556 175Q545 135 527 102T481 44T418 5T332 -12L323 -57L327 -61Q338 -58 349 -56T372 -54Q402 -54
423 -70T444 -122Q444 -146 434 -163T406 -190T365 -205T318 -210Q269 -210 242 -196T201 -167L245 -116Q255 -128 271 -136T310 -145Q329 -145 341 -139T354 -118Q354 -106 340 -95T281 -78L258 -75L271 -9Q158 7 104 99T50 349Q50 521 115 615T318 710Q370 710
409 696T478 658T526 599T556 523L436 489Q429 513 420 534T398 570T364 594T316 603Z"></glyph>
<glyph unicode="&#xc8;" glyph-name="Egrave" d="M164 915L272 969L367 782L290 745L164 915ZM83 0V698H524V590H214V408H513V300H214V108H524V0H83Z"></glyph>
<glyph unicode="&#xc9;" glyph-name="Eacute" d="M83 0V698H524V590H214V408H513V300H214V108H524V0H83ZM316 745L239 782L334 969L442 915L316 745Z"></glyph>
<glyph unicode="&#xca;" glyph-name="Ecircumflex" d="M361 950L487 795L421 746L301 861L181 746L119 795L245 950H361ZM83 0V698H524V590H214V408H513V300H214V108H524V0H83Z"></glyph>
<glyph unicode="&#xcb;" glyph-name="Edieresis" d="M83 0V698H524V590H214V408H513V300H214V108H524V0H83ZM198 769Q157 769 141 786T125 827V849Q125 873 141 890T198 907Q239 907 255 890T271 849V827Q271 803 255 786T198 769ZM408 769Q367 769 351 786T335
827V849Q335 873 351 890T408 907Q449 907 465 890T481 849V827Q481 803 465 786T408 769Z"></glyph>
<glyph unicode="&#xcc;" glyph-name="Igrave" d="M78 0V98H235V600H78V698H522V600H365V98H522V0H78ZM161 915L269 969L364 782L287 745L161 915Z"></glyph>
<glyph unicode="&#xcd;" glyph-name="Iacute" d="M78 0V98H235V600H78V698H522V600H365V98H522V0H78ZM313 745L236 782L331 969L439 915L313 745Z"></glyph>
<glyph unicode="&#xce;" glyph-name="Icircumflex" d="M78 0V98H235V600H78V698H522V600H365V98H522V0H78ZM358 950L484 795L418 746L298 861L178 746L116 795L242 950H358Z"></glyph>
<glyph unicode="&#xcf;" glyph-name="Idieresis" d="M78 0V98H235V600H78V698H522V600H365V98H522V0H78ZM195 769Q154 769 138 786T122 827V849Q122 873 138 890T195 907Q236 907 252 890T268 849V827Q268 803 252 786T195 769ZM405 769Q364 769 348 786T332 827V849Q332
873 348 890T405 907Q446 907 462 890T478 849V827Q478 803 462 786T405 769Z"></glyph>
<glyph unicode="&#xd0;" glyph-name="Eth" d="M79 319H14V418H79V698H290Q426 698 492 608T559 349Q559 179 493 90T290 0H79V319ZM281 105Q353 105 387 152T422 289V410Q422 499 388 546T281 593H208V414H327V322H208V105H281Z"></glyph>
<glyph unicode="&#xd1;" glyph-name="Ntilde" d="M375 768Q351 768 333 775T297 790Q275 800 257 806T222 812Q205 812 192 806T163 787L117 846Q134 872 160 889T225 907Q249 907 267 900T303 885Q325 875 343 869T378 863Q395 863 408 869T437 888L483 829Q466
803 440 786T375 768ZM189 501H179V0H67V698H228L411 197H421V698H533V0H372L189 501Z"></glyph>
<glyph unicode="&#xd2;" glyph-name="Ograve" d="M161 915L269 969L364 782L287 745L161 915ZM300 -12Q232 -12 182 12T100 83T52 196T36 349Q36 434 51 501T99 615T182 685T300 710Q436 710 500 615T564 349Q564 178 500 83T300 -12ZM300 95Q335 95 359 108T397
147T418 208T425 290V409Q425 499 398 551T300 603Q230 603 203 551T175 409V289Q175 199 202 147T300 95Z"></glyph>
<glyph unicode="&#xd3;" glyph-name="Oacute" d="M313 745L236 782L331 969L439 915L313 745ZM300 -12Q232 -12 182 12T100 83T52 196T36 349Q36 434 51 501T99 615T182 685T300 710Q436 710 500 615T564 349Q564 178 500 83T300 -12ZM300 95Q335 95 359 108T397
147T418 208T425 290V409Q425 499 398 551T300 603Q230 603 203 551T175 409V289Q175 199 202 147T300 95Z"></glyph>
<glyph unicode="&#xd4;" glyph-name="Ocircumflex" d="M358 950L484 795L418 746L298 861L178 746L116 795L242 950H358ZM300 -12Q232 -12 182 12T100 83T52 196T36 349Q36 434 51 501T99 615T182 685T300 710Q436 710 500 615T564 349Q564 178 500 83T300 -12ZM300
95Q335 95 359 108T397 147T418 208T425 290V409Q425 499 398 551T300 603Q230 603 203 551T175 409V289Q175 199 202 147T300 95Z"></glyph>
<glyph unicode="&#xd5;" glyph-name="Otilde" d="M300 -12Q232 -12 182 12T100 83T52 196T36 349Q36 434 51 501T99 615T182 685T300 710Q436 710 500 615T564 349Q564 178 500 83T300 -12ZM300 95Q335 95 359 108T397 147T418 208T425 290V409Q425 499 398 551T300
603Q230 603 203 551T175 409V289Q175 199 202 147T300 95ZM375 768Q351 768 333 775T297 790Q275 800 257 806T222 812Q205 812 192 806T163 787L117 846Q134 872 160 889T225 907Q249 907 267 900T303 885Q325 875 343 869T378 863Q395 863 408 869T437 888L483
829Q466 803 440 786T375 768Z"></glyph>
<glyph unicode="&#xd6;" glyph-name="Odieresis" d="M300 -12Q232 -12 182 12T100 83T52 196T36 349Q36 434 51 501T99 615T182 685T300 710Q436 710 500 615T564 349Q564 178 500 83T300 -12ZM300 95Q335 95 359 108T397 147T418 208T425 290V409Q425 499 398
551T300 603Q230 603 203 551T175 409V289Q175 199 202 147T300 95ZM195 769Q154 769 138 786T122 827V849Q122 873 138 890T195 907Q236 907 252 890T268 849V827Q268 803 252 786T195 769ZM405 769Q364 769 348 786T332 827V849Q332 873 348 890T405 907Q446
907 462 890T478 849V827Q478 803 462 786T405 769Z"></glyph>
<glyph unicode="&#xd7;" glyph-name="multiply" d="M300 231L150 80L75 155L226 305L75 455L150 530L300 379L450 530L525 455L374 305L525 155L450 80L300 231Z"></glyph>
<glyph unicode="&#xd8;" glyph-name="Oslash" d="M300 -12Q217 -12 162 24L111 -59L27 -11L92 94Q63 140 50 204T36 349Q36 434 51 501T99 615T182 685T300 710Q382 710 438 674L489 757L573 709L508 604Q537 558 550 494T564 349Q564 178 500 83T300 -12ZM175
289Q175 272 176 256T180 225L382 573Q352 603 300 603Q230 603 203 551T175 409V289ZM300 95Q370 95 397 147T425 289V409Q425 426 424 442T420 473L218 125Q248 95 300 95Z"></glyph>
<glyph unicode="&#xd9;" glyph-name="Ugrave" d="M161 915L269 969L364 782L287 745L161 915ZM193 698V263Q193 224 195 193T208 141T240 107T300 95Q338 95 359 107T391 140T404 193T407 263V698H538V283Q538 209 529 154T494 62T422 7T300 -12Q225 -12 179 6T106
62T71 154T62 283V698H193Z"></glyph>
<glyph unicode="&#xda;" glyph-name="Uacute" d="M193 698V263Q193 224 195 193T208 141T240 107T300 95Q338 95 359 107T391 140T404 193T407 263V698H538V283Q538 209 529 154T494 62T422 7T300 -12Q225 -12 179 6T106 62T71 154T62 283V698H193ZM313 745L236
782L331 969L439 915L313 745Z"></glyph>
<glyph unicode="&#xdb;" glyph-name="Ucircumflex" d="M358 950L484 795L418 746L298 861L178 746L116 795L242 950H358ZM193 698V263Q193 224 195 193T208 141T240 107T300 95Q338 95 359 107T391 140T404 193T407 263V698H538V283Q538 209 529 154T494 62T422
7T300 -12Q225 -12 179 6T106 62T71 154T62 283V698H193Z"></glyph>
<glyph unicode="&#xdc;" glyph-name="Udieresis" d="M193 698V263Q193 224 195 193T208 141T240 107T300 95Q338 95 359 107T391 140T404 193T407 263V698H538V283Q538 209 529 154T494 62T422 7T300 -12Q225 -12 179 6T106 62T71 154T62 283V698H193ZM195 769Q154
769 138 786T122 827V849Q122 873 138 890T195 907Q236 907 252 890T268 849V827Q268 803 252 786T195 769ZM405 769Q364 769 348 786T332 827V849Q332 873 348 890T405 907Q446 907 462 890T478 849V827Q478 803 462 786T405 769Z"></glyph>
<glyph unicode="&#xdd;" glyph-name="Yacute" d="M235 0V255L8 698H154L235 530L298 387H305L369 530L451 698H592L365 255V0H235ZM313 745L236 782L331 969L439 915L313 745Z"></glyph>
<glyph unicode="&#xde;" glyph-name="Thorn" d="M80 0V698H211V570H342Q393 570 432 555T497 511T537 443T551 354Q551 256 498 198T342 140H211V0H80ZM211 246H316Q369 246 392 267T415 336V373Q415 420 392 441T316 463H211V246Z"></glyph>
<glyph unicode="&#xdf;" glyph-name="germandbls" d="M72 0V600Q72 631 80 656T107 700T152 729T217 740H369V642H197V516H535V418L387 212Q475 200 524 152T573 15Q573 -90 502 -145T311 -200H245V-102H305Q376 -102 409 -77T443 3V27Q443 81 408 105T295 129H274V227L412
418H197V0H72Z"></glyph>
<glyph unicode="&#xe0;" glyph-name="agrave" d="M490 0Q443 0 418 23T387 89H382Q368 41 327 15T226 -12Q148 -12 102 29T56 143Q56 299 285 299H376V333Q376 382 352 407T274 432Q225 432 195 413T144 364L71 426Q95 469 148 498T287 528Q389 528 446 481T504
339V96H565V0H490ZM269 76Q315 76 345 97T376 156V225H288Q183 225 183 159V139Q183 108 206 92T269 76ZM408 745L516 799L611 612L534 575L408 745Z"></glyph>
<glyph unicode="&#xe1;" glyph-name="aacute" d="M490 0Q443 0 418 23T387 89H382Q368 41 327 15T226 -12Q148 -12 102 29T56 143Q56 299 285 299H376V333Q376 382 352 407T274 432Q225 432 195 413T144 364L71 426Q95 469 148 498T287 528Q389 528 446 481T504
339V96H565V0H490ZM269 76Q315 76 345 97T376 156V225H288Q183 225 183 159V139Q183 108 206 92T269 76ZM560 575L483 612L578 799L686 745L560 575Z"></glyph>
<glyph unicode="&#xe2;" glyph-name="acircumflex" d="M490 0Q443 0 418 23T387 89H382Q368 41 327 15T226 -12Q148 -12 102 29T56 143Q56 299 285 299H376V333Q376 382 352 407T274 432Q225 432 195 413T144 364L71 426Q95 469 148 498T287 528Q389 528 446 481T504
339V96H565V0H490ZM269 76Q315 76 345 97T376 156V225H288Q183 225 183 159V139Q183 108 206 92T269 76ZM605 780L731 625L665 576L545 691L425 576L363 625L489 780H605Z"></glyph>
<glyph unicode="&#xe3;" glyph-name="atilde" d="M490 0Q443 0 418 23T387 89H382Q368 41 327 15T226 -12Q148 -12 102 29T56 143Q56 299 285 299H376V333Q376 382 352 407T274 432Q225 432 195 413T144 364L71 426Q95 469 148 498T287 528Q389 528 446 481T504
339V96H565V0H490ZM269 76Q315 76 345 97T376 156V225H288Q183 225 183 159V139Q183 108 206 92T269 76ZM622 598Q598 598 580 605T544 620Q522 630 504 636T469 642Q452 642 439 636T410 617L364 676Q381 702 407 719T472 737Q496 737 514 730T550 715Q572 705
590 699T625 693Q642 693 655 699T684 718L730 659Q713 633 687 616T622 598Z"></glyph>
<glyph unicode="&#xe4;" glyph-name="adieresis" d="M490 0Q443 0 418 23T387 89H382Q368 41 327 15T226 -12Q148 -12 102 29T56 143Q56 299 285 299H376V333Q376 382 352 407T274 432Q225 432 195 413T144 364L71 426Q95 469 148 498T287 528Q389 528 446 481T504
339V96H565V0H490ZM269 76Q315 76 345 97T376 156V225H288Q183 225 183 159V139Q183 108 206 92T269 76ZM442 599Q401 599 385 616T369 657V679Q369 703 385 720T442 737Q483 737 499 720T515 679V657Q515 633 499 616T442 599ZM652 599Q611 599 595 616T579 657V679Q579
703 595 720T652 737Q693 737 709 720T725 679V657Q725 633 709 616T652 599Z"></glyph>
<glyph unicode="&#xe5;" glyph-name="aring" d="M490 0Q443 0 418 23T387 89H382Q368 41 327 15T226 -12Q148 -12 102 29T56 143Q56 299 285 299H376V333Q376 382 352 407T274 432Q225 432 195 413T144 364L71 426Q95 469 148 498T287 528Q389 528 446 481T504
339V96H565V0H490ZM269 76Q315 76 345 97T376 156V225H288Q183 225 183 159V139Q183 108 206 92T269 76ZM547 556Q518 556 493 566T449 594T420 636T409 691Q409 720 419 745T448 788T492 816T547 826Q576 826 601 816T645 788T674 746T685 691Q685 662 675 637T646
594T602 566T547 556ZM547 623Q573 623 586 637T600 675V707Q600 759 547 759Q521 759 508 745T494 707V675Q494 623 547 623Z"></glyph>
<glyph unicode="&#xe6;" glyph-name="ae" d="M138 -12Q82 -12 44 26T6 140Q6 220 52 261T187 302H233V358Q233 445 169 445Q138 445 123 426T96 374L16 407Q32 465 71 496T169 528Q215 528 246 509T294 454H298Q339 528 419 528Q496 528 539 467T583 296V231H339V213Q339
151 359 113T418 75Q449 75 465 98T491 152L577 125Q569 98 556 73T524 29T478 -1T418 -12Q366 -12 325 16T265 104H261Q250 44 218 16T138 -12ZM165 70Q202 70 217 97T233 172V231H198Q156 231 133 213T109 156V138Q109 106 122 88T165 70ZM413 447Q376 447 358
419T339 343V302H487V343Q487 391 469 419T413 447Z"></glyph>
<glyph unicode="&#xe7;" glyph-name="ccedilla" d="M319 528Q401 528 451 494T527 404L428 350Q414 383 389 403T319 424Q262 424 232 391T201 301V215Q201 159 231 126T321 92Q367 92 394 113T439 169L535 112Q509 58 459 24T329 -12L320 -57L324 -61Q335 -58
346 -56T369 -54Q399 -54 420 -70T441 -122Q441 -146 431 -163T403 -190T362 -205T315 -210Q267 -210 239 -196T199 -167L242 -116Q252 -128 268 -136T307 -145Q326 -145 338 -139T351 -118Q351 -106 337 -95T278 -78L255 -75L269 -8Q173 7 120 77T67 258Q67 320
84 370T134 455T213 509T319 528Z"></glyph>
<glyph unicode="&#xe8;" glyph-name="egrave" d="M312 -12Q250 -12 202 7T122 61T72 145T55 257Q55 320 72 370T122 455T199 509T302 528Q358 528 403 510T479 457T528 375T545 269V227H183V214Q183 158 218 124T316 89Q364 89 398 108T456 160L529 87Q501 46
448 17T312 -12ZM303 434Q249 434 216 400T183 310V303H417V312Q417 368 387 401T303 434ZM162 745L270 799L365 612L288 575L162 745Z"></glyph>
<glyph unicode="&#xe9;" glyph-name="eacute" d="M314 575L237 612L332 799L440 745L314 575ZM312 -12Q250 -12 202 7T122 61T72 145T55 257Q55 320 72 370T122 455T199 509T302 528Q358 528 403 510T479 457T528 375T545 269V227H183V214Q183 158 218 124T316
89Q364 89 398 108T456 160L529 87Q501 46 448 17T312 -12ZM303 434Q249 434 216 400T183 310V303H417V312Q417 368 387 401T303 434Z"></glyph>
<glyph unicode="&#xea;" glyph-name="ecircumflex" d="M359 780L485 625L419 576L299 691L179 576L117 625L243 780H359ZM312 -12Q250 -12 202 7T122 61T72 145T55 257Q55 320 72 370T122 455T199 509T302 528Q358 528 403 510T479 457T528 375T545 269V227H183V214Q183
158 218 124T316 89Q364 89 398 108T456 160L529 87Q501 46 448 17T312 -12ZM303 434Q249 434 216 400T183 310V303H417V312Q417 368 387 401T303 434Z"></glyph>
<glyph unicode="&#xeb;" glyph-name="edieresis" d="M196 599Q155 599 139 616T123 657V679Q123 703 139 720T196 737Q237 737 253 720T269 679V657Q269 633 253 616T196 599ZM406 599Q365 599 349 616T333 657V679Q333 703 349 720T406 737Q447 737 463 720T479
679V657Q479 633 463 616T406 599ZM312 -12Q250 -12 202 7T122 61T72 145T55 257Q55 320 72 370T122 455T199 509T302 528Q358 528 403 510T479 457T528 375T545 269V227H183V214Q183 158 218 124T316 89Q364 89 398 108T456 160L529 87Q501 46 448 17T312 -12ZM303
434Q249 434 216 400T183 310V303H417V312Q417 368 387 401T303 434Z"></glyph>
<glyph unicode="&#xec;" glyph-name="igrave" d="M98 101H268V415H98V516H396V101H554V0H98V101ZM193 745L301 799L396 612L319 575L193 745Z"></glyph>
<glyph unicode="&#xed;" glyph-name="iacute" d="M345 575L268 612L363 799L471 745L345 575ZM98 101H268V415H98V516H396V101H554V0H98V101Z"></glyph>
<glyph unicode="&#xee;" glyph-name="icircumflex" d="M390 780L516 625L450 576L330 691L210 576L148 625L274 780H390ZM98 101H268V415H98V516H396V101H554V0H98V101Z"></glyph>
<glyph unicode="&#xef;" glyph-name="idieresis" d="M227 599Q186 599 170 616T154 657V679Q154 703 170 720T227 737Q268 737 284 720T300 679V657Q300 633 284 616T227 599ZM437 599Q396 599 380 616T364 657V679Q364 703 380 720T437 737Q478 737 494 720T510
679V657Q510 633 494 616T437 599ZM98 101H268V415H98V516H396V101H554V0H98V101Z"></glyph>
<glyph unicode="&#xf0;" glyph-name="eth" d="M476 698L397 648Q429 616 457 577T507 491T540 390T553 274Q553 200 535 146T484 57T405 5T303 -12Q243 -12 196 6T116 59T66 141T48 251Q48 308 62 354T104 433T169 483T253 501Q311 501 350 475T413 405L420 409Q403
460 373 504T300 590L206 531L159 586L244 639Q209 668 170 692T87 740H284Q298 731 312 721T342 698L429 753L476 698ZM301 86Q356 86 388 119T421 215V274Q421 337 389 370T301 403Q246 403 214 370T181 274V215Q181 152 213 119T301 86Z"></glyph>
<glyph unicode="&#xf1;" glyph-name="ntilde" d="M75 0V516H203V425H208Q225 467 260 497T359 528Q435 528 482 478T530 333V0H402V315Q402 427 305 427Q285 427 267 422T235 407T212 381T203 345V0H75ZM377 598Q353 598 335 605T299 620Q277 630 259 636T224
642Q207 642 194 636T165 617L119 676Q136 702 162 719T227 737Q251 737 269 730T305 715Q327 705 345 699T380 693Q397 693 410 699T439 718L485 659Q468 633 442 616T377 598Z"></glyph>
<glyph unicode="&#xf2;" glyph-name="ograve" d="M300 -12Q241 -12 195 7T116 61T66 146T48 258Q48 320 65 370T115 455T194 509T300 528Q358 528 405 509T484 455T534 370T552 258Q552 196 535 146T485 61T405 7T300 -12ZM300 86Q355 86 387 119T419 218V298Q419
363 387 396T300 430Q245 430 213 397T181 298V218Q181 153 213 120T300 86ZM161 745L269 799L364 612L287 575L161 745Z"></glyph>
<glyph unicode="&#xf3;" glyph-name="oacute" d="M313 575L236 612L331 799L439 745L313 575ZM300 -12Q241 -12 195 7T116 61T66 146T48 258Q48 320 65 370T115 455T194 509T300 528Q358 528 405 509T484 455T534 370T552 258Q552 196 535 146T485 61T405 7T300
-12ZM300 86Q355 86 387 119T419 218V298Q419 363 387 396T300 430Q245 430 213 397T181 298V218Q181 153 213 120T300 86Z"></glyph>
<glyph unicode="&#xf4;" glyph-name="ocircumflex" d="M358 780L484 625L418 576L298 691L178 576L116 625L242 780H358ZM300 -12Q241 -12 195 7T116 61T66 146T48 258Q48 320 65 370T115 455T194 509T300 528Q358 528 405 509T484 455T534 370T552 258Q552 196
535 146T485 61T405 7T300 -12ZM300 86Q355 86 387 119T419 218V298Q419 363 387 396T300 430Q245 430 213 397T181 298V218Q181 153 213 120T300 86Z"></glyph>
<glyph unicode="&#xf5;" glyph-name="otilde" d="M300 -12Q241 -12 195 7T116 61T66 146T48 258Q48 320 65 370T115 455T194 509T300 528Q358 528 405 509T484 455T534 370T552 258Q552 196 535 146T485 61T405 7T300 -12ZM300 86Q355 86 387 119T419 218V298Q419
363 387 396T300 430Q245 430 213 397T181 298V218Q181 153 213 120T300 86ZM375 598Q351 598 333 605T297 620Q275 630 257 636T222 642Q205 642 192 636T163 617L117 676Q134 702 160 719T225 737Q249 737 267 730T303 715Q325 705 343 699T378 693Q395 693 408
699T437 718L483 659Q466 633 440 616T375 598Z"></glyph>
<glyph unicode="&#xf6;" glyph-name="odieresis" d="M195 599Q154 599 138 616T122 657V679Q122 703 138 720T195 737Q236 737 252 720T268 679V657Q268 633 252 616T195 599ZM405 599Q364 599 348 616T332 657V679Q332 703 348 720T405 737Q446 737 462 720T478
679V657Q478 633 462 616T405 599ZM300 -12Q241 -12 195 7T116 61T66 146T48 258Q48 320 65 370T115 455T194 509T300 528Q358 528 405 509T484 455T534 370T552 258Q552 196 535 146T485 61T405 7T300 -12ZM300 86Q355 86 387 119T419 218V298Q419 363 387 396T300
430Q245 430 213 397T181 298V218Q181 153 213 120T300 86Z"></glyph>
<glyph unicode="&#xf7;" glyph-name="divide" d="M62 254V357H538V254H62ZM300 36Q256 36 238 54T220 99V122Q220 148 238 166T300 185Q344 185 362 167T380 122V99Q380 72 362 54T300 36ZM300 426Q256 426 238 444T220 489V512Q220 538 238 556T300 575Q344 575
362 557T380 512V489Q380 463 362 445T300 426Z"></glyph>
<glyph unicode="&#xf8;" glyph-name="oslash" d="M30 -1L99 82Q48 149 48 258Q48 320 65 370T115 455T194 509T300 528Q340 528 374 519T436 493L499 569L570 517L501 434Q552 366 552 258Q552 196 535 146T485 61T405 7T300 -12Q260 -12 226 -3T164 23L101 -53L30
-1ZM300 430Q245 430 213 397T181 298V224Q181 213 182 201T186 180L373 408Q359 419 341 424T300 430ZM300 86Q355 86 387 119T419 218V292Q419 303 418 315T414 336L227 108Q241 97 259 92T300 86Z"></glyph>
<glyph unicode="&#xf9;" glyph-name="ugrave" d="M397 91H392Q375 49 340 19T241 -12Q165 -12 118 38T70 183V516H198V201Q198 89 295 89Q314 89 332 94T365 109T388 135T397 171V516H525V0H397V91ZM416 745L524 799L619 612L542 575L416 745Z"></glyph>
<glyph unicode="&#xfa;" glyph-name="uacute" d="M568 575L491 612L586 799L694 745L568 575ZM397 91H392Q375 49 340 19T241 -12Q165 -12 118 38T70 183V516H198V201Q198 89 295 89Q314 89 332 94T365 109T388 135T397 171V516H525V0H397V91Z"></glyph>
<glyph unicode="&#xfb;" glyph-name="ucircumflex" d="M613 780L739 625L673 576L553 691L433 576L371 625L497 780H613ZM397 91H392Q375 49 340 19T241 -12Q165 -12 118 38T70 183V516H198V201Q198 89 295 89Q314 89 332 94T365 109T388 135T397 171V516H525V0H397V91Z"></glyph>
<glyph unicode="&#xfc;" glyph-name="udieresis" d="M450 599Q409 599 393 616T377 657V679Q377 703 393 720T450 737Q491 737 507 720T523 679V657Q523 633 507 616T450 599ZM660 599Q619 599 603 616T587 657V679Q587 703 603 720T660 737Q701 737 717 720T733
679V657Q733 633 717 616T660 599ZM397 91H392Q375 49 340 19T241 -12Q165 -12 118 38T70 183V516H198V201Q198 89 295 89Q314 89 332 94T365 109T388 135T397 171V516H525V0H397V91Z"></glyph>
<glyph unicode="&#xfd;" glyph-name="yacute" d="M441 516H571L324 -92Q303 -145 268 -172T169 -200H75V-99H198L237 5L29 516H165L244 300L299 136H306L361 300L441 516ZM314 575L237 612L332 799L440 745L314 575Z"></glyph>
<glyph unicode="&#xfe;" glyph-name="thorn" d="M69 740H197V425H204Q225 472 261 500T358 528Q402 528 438 512T501 462T541 377T555 258Q555 190 541 139T501 55T439 5T358 -12Q298 -12 262 16T204 91H197V-200H69V740ZM304 90Q360 90 390 124T421 217V299Q421
358 391 392T304 426Q260 426 229 405T197 339V177Q197 133 228 112T304 90Z"></glyph>
<glyph unicode="&#xff;" glyph-name="ydieresis" d="M441 516H571L324 -92Q303 -145 268 -172T169 -200H75V-99H198L237 5L29 516H165L244 300L299 136H306L361 300L441 516ZM196 599Q155 599 139 616T123 657V679Q123 703 139 720T196 737Q237 737 253 720T269
679V657Q269 633 253 616T196 599ZM406 599Q365 599 349 616T333 657V679Q333 703 349 720T406 737Q447 737 463 720T479 679V657Q479 633 463 616T406 599Z"></glyph>
<glyph unicode="&#x2013;" glyph-name="endash" d="M60 251V358H540V251H60Z"></glyph>
<glyph unicode="&#x2014;" glyph-name="emdash" d="M0 251V358H600V251H0Z"></glyph>
<glyph unicode="&#x2018;" glyph-name="quoteleft" d="M303 740H399L344 428H172L303 740Z"></glyph>
<glyph unicode="&#x2019;" glyph-name="quoteright" d="M256 740H428L297 428H201L256 740Z"></glyph>
<glyph unicode="&#x201a;" glyph-name="quotesinglbase" d="M236 163H408L277 -148H180L236 163Z"></glyph>
<glyph unicode="&#x201c;" glyph-name="quotedblleft" d="M436 740H532L477 428H305L436 740ZM431 740H527L472 428H300L431 740Z"></glyph>
<glyph unicode="&#x201d;" glyph-name="quotedblright" d="M389 740H561L430 428H334L389 740ZM384 740H556L425 428H329L384 740Z"></glyph>
<glyph unicode="&#x201e;" glyph-name="quotedblbase" d="M377 163H549L418 -148H321L377 163ZM372 163H544L413 -148H316L372 163Z"></glyph>
<glyph unicode="&#x2022;" glyph-name="bullet" d="M300 165Q260 165 233 174T188 200T164 239T156 288V320Q156 346 163 368T188 407T232 433T300 443Q340 443 367 434T412 408T436 369T444 320V288Q444 235 412 200T300 165Z"></glyph>
<glyph unicode="&#x2039;" glyph-name="guilsinglleft" d="M374 43L172 213V329L374 499L413 415L278 271L413 127L374 43Z"></glyph>
<glyph unicode="&#x203a;" glyph-name="guilsinglright" d="M187 127L322 271L187 415L226 499L428 329V213L226 43L187 127Z"></glyph>
</font>
</defs>
</svg>
